<svg xmlns="http://www.w3.org/2000/svg" xmlns:xlink="http://www.w3.org/1999/xlink" viewBox="0 0 286.43 262.69">
  <defs>
    <style>
      .cls-1 {
        fill: #fda90f;
      }
    </style>
  </defs>
  <g id="Layer_2" data-name="Layer 2">
    <g id="logo">
      <path class="cls-1" d="M271.71,205.46h2.46v7.71h.92v-7.71h2.47v-.82h-5.84v.82Zm11.11,5.23L280,204.64h-.91v8.53H280v-6.48l2.37,5.14h.78l2.33-5.14v6.48h.91v-8.53h-.91Zm-23.27-9.3-39.87-67.55,34.32-52,17.49-11.4H221L227.3,80l-28.48,43.22v42.2l5.26-8s27.87,47,32.95,55.72h35.69Zm-68.73,12-28.66,49.2V58.38H145.3L190.82,0Zm-66.39,49.33L95.77,213.36v-155H78.91L124.43,0V262.69Zm-36.67-112V88.27c-7.93,25.24-22.1,68.31-22.1,68.31S40,81.23,37.44,71.3a1.22,1.22,0,0,0-1.2-.91H0l9.72,9.73c0,7,0,123.28-.11,123.64L0,213.35H48l0,0L38.3,203.7c-.07-.34-.11-66.77-.11-66.77l27.43,76.43Z"/>
    </g>
  </g>
</svg>
